<?xml version="1.0" encoding="UTF-8"?>
<!DOCTYPE svg PUBLIC "-//W3C//DTD SVG 1.1//EN" "http://www.w3.org/Graphics/SVG/1.1/DTD/svg11.dtd">
<!-- Creator: CorelDRAW (OEM Version) -->
<svg xmlns="http://www.w3.org/2000/svg" xml:space="preserve" width="8.5in" height="11in" version="1.1" style="shape-rendering:geometricPrecision; text-rendering:geometricPrecision; image-rendering:optimizeQuality; fill-rule:evenodd; clip-rule:evenodd"
viewBox="0 0 8500 11000"
 xmlns:xlink="http://www.w3.org/1999/xlink"
 xmlns:xodm="http://www.corel.com/coreldraw/odm/2003">
 <defs>
  <style type="text/css">
   <![CDATA[
    .str2 {stroke:#2B2A29;stroke-width:27.78;stroke-miterlimit:2.61313}
    .str3 {stroke:#2B2A29;stroke-width:20.83;stroke-miterlimit:2.61313}
    .str5 {stroke:#2B2A29;stroke-width:20.83;stroke-miterlimit:2.61313}
    .str6 {stroke:#2B2A29;stroke-width:20.83;stroke-miterlimit:2.61313}
    .str7 {stroke:#2B2A29;stroke-width:20.83;stroke-miterlimit:2.61313}
    .str4 {stroke:#2B2A29;stroke-width:20.83;stroke-miterlimit:2.61313}
    .str1 {stroke:#2B2A29;stroke-width:6.94;stroke-miterlimit:2.61313}
    .str0 {stroke:#2B2A29;stroke-width:6.94;stroke-miterlimit:2.61313}
    .fil2 {fill:none}
    .fil1 {fill:#2B2A29}
    .fil0 {fill:#2B2A29}
    .fil3 {fill:#2B2A29;fill-rule:nonzero}
   ]]>
  </style>
 </defs>
 <g id="Layer_x0020_1">
  <metadata id="CorelCorpID_0Corel-Layer"/>
  <g id="_2683633149376">
   <polygon class="fil0 str0" points="1219.26,3155.45 1101.15,3143.48 1113.98,3158.98 1098.44,3269.05 3435.67,3478.02 3447.28,3357.47 "/>
   <polygon class="fil0 str1" points="1061.39,4114.17 927.41,4105.34 943.97,4129.3 924.74,4250.52 3398.85,4401.74 3412.67,4263.55 1065.09,4114.41 "/>
   <polygon class="fil0 str1" points="750.87,5182.06 758.93,5195.24 729.87,5339.07 3238.01,5402.9 3235.33,5267.49 "/>
   <polygon class="fil0 str1" points="3464.47,2650.16 3482.81,2479.93 1273.08,2228.01 1266.35,2248.55 1285.83,2263.78 1258.32,2390.15 "/>
   <polygon class="fil1 str1" points="1666.15,6379.95 1668.56,6378.87 "/>
   <polygon class="fil1 str1" points="1666.15,6379.95 1666.15,6379.95 "/>
   <polygon class="fil1 str1" points="3119.5,6351.48 1666.15,6379.95 "/>
   <polygon class="fil1 str1" points="1666.15,6379.95 1666.15,6379.95 "/>
   <polyline class="fil2 str2" points="1260.81,2391.98 1334.42,2547.08 1219.26,3155.45 3447.28,3357.47 3435.67,3478.02 1098.44,3269.05 1182.16,3388.13 1065.09,4114.41 3412.67,4263.55 3398.85,4401.74 924.74,4250.52 1014.38,4331.39 865.51,5186 3235.33,5267.49 3238.01,5402.9 729.87,5339.07 1628.69,5703.07 1718.91,5703.66 1638.32,6380.5 1666.26,6379.95 1666.55,6382.43 1605.41,6910.61 3091.48,6902.34 3125.35,6351.37 "/>
   <polygon class="fil1 str1" points="1668.56,6378.87 1605.41,6910.61 3091.48,6902.34 3125.35,6351.37 "/>
   <polygon class="fil1 str1" points="3152.07,5101.59 3142.92,5263.8 3961.15,5279.51 3945.45,6335.31 3937.91,6941.37 4121.47,6940.19 4135.72,5123.24 "/>
   <g>
    <polygon class="fil1" points="3149.33,5104.06 3141.54,5259.6 3118.06,6314.68 3103.57,6952.67 3287.14,6951.48 3320.36,5107.51 "/>
    <path id="_1" class="fil3" d="M3138.07 5259.42l7.8 -155.54 6.93 0.36 -7.8 155.54 -6.93 -0.27 0 -0.09zm0 0.09l0 -0.09 0 -0.07 -0 0.17zm-23.48 1055.07l23.48 -1055.07 6.93 0.17 -23.48 1055.07 0 0 -6.93 -0.17zm-14.49 637.99l14.49 -637.99 6.93 0.17 -14.49 637.99 -3.43 3.38 -3.5 -3.56zm3.5 3.56l-3.58 0.02 0.08 -3.58 3.5 3.56zm183.57 -1.19l-183.57 1.19 -0.06 -6.94 183.57 -1.19 3.5 3.54 -3.44 3.4zm3.44 -3.4l-0.06 3.37 -3.38 0.02 3.44 -3.4zm33.22 -1843.97l-33.22 1843.97 -6.94 -0.14 33.22 -1843.97 3.53 -3.4 3.41 3.54zm-3.41 -3.54l3.47 0.07 -0.06 3.47 -3.41 -3.54zm-171.02 -3.44l171.02 3.44 -0.12 6.94 -171.02 -3.44 -3.41 -3.65 3.52 -3.29zm-3.52 3.29l0.17 -3.35 3.35 0.07 -3.52 3.29z"/>
   </g>
   <polygon class="fil1 str1" points="3383.22,4415.91 5969.59,4565.86 5990.44,4674.78 5560.31,4651.82 5571.7,4778.26 5368.94,4770.29 5358.69,4643.85 5228.83,4638.15 5234.52,4757.76 5022.65,4747.51 5014.68,4631.32 4665.78,4610.09 4665.78,4735.15 4450.94,4722.32 4445.33,4598.87 4308.25,4588.45 4307.45,4704.69 4088.61,4696.67 4082.4,4575.35 3370.18,4540.82 "/>
   <polygon class="fil1 str1" points="3418.47,3578.56 5895.98,3787.53 5909.63,3893.76 5507.49,3858.85 5507.49,3968.12 5314.77,3955.98 5304.15,3839.89 5182.74,3833.81 5185.78,3947.63 4986.98,3928.66 4980.15,3819.4 4642.93,3787.27 4646.95,3901.67 4441.23,3889.63 4439.22,3772.22 4303.74,3759.17 4299.73,3872.57 4088.3,3854.76 4086.44,3740.81 3406.13,3683.33 "/>
   <polygon class="fil1 str1" points="4133.81,5367.53 6059.76,5422.37 6074.52,5544.68 5635.87,5532.03 5642.2,5664.89 5429.2,5660.67 5416.55,5529.92 5277.37,5521.48 5285.8,5650.13 5068.59,5641.69 5058.04,5525.7 4688.99,5513.05 4693.21,5643.8 4461.24,5639.58 4457.02,5498.29 4317.83,5496.18 4322.05,5639.58 4131.71,5635.69 "/>
   <polygon class="fil1 str1" points="3457.32,2673.43 3437.5,2905.95 4094.5,2974.02 4093.2,3080.06 4300.02,3102.31 4303.95,3000.2 4425.69,3014.6 4427.94,3114.06 4628.86,3136.7 4630.56,3032.56 4947.33,3069.13 4948.06,3166.42 5144.08,3191.1 5143.35,3092.37 5259.52,3103.26 5264.6,3204.17 5453.36,3227.4 5449.71,3121.39 5836.84,3157.68 6026.88,2933.61 6828.06,3033.75 6809.56,2920.82 6822.24,2896.49 5993.24,2788 5870.67,2943.15 "/>
   <polygon class="fil1 str1" points="6779.91,3082.85 6602.57,3239.45 6809.94,3257.6 "/>
   <polygon class="fil1 str1" points="6949.24,3789.25 6107.63,3706.53 5909.63,3893.76 5895.98,3787.53 6094.99,3602.28 6949.56,3686.37 6935.72,3700.52 "/>
   <polygon class="fil1 str1" points="6920.24,3968.78 6711.35,3951.04 6832.84,3859.33 6898.79,3801.71 "/>
   <polygon class="fil1 str1" points="5990.44,4674.78 6201.29,4558.92 7083.74,4606.01 7062.67,4510.27 7078.83,4495.36 7004.25,4489.1 6188.56,4441.4 5969.59,4565.86 "/>
   <polygon class="fil1 str1" points="7016.22,4619.2 6829.86,4726.34 7032.39,4732.96 "/>
   <polygon class="fil1 str1" points="6074.52,5544.68 6298.93,5488.91 7223.22,5509.41 7205.75,5395.42 7220.71,5386.15 7146.96,5376.81 6289.3,5355.55 6059.76,5422.37 "/>
   <polygon class="fil1 str1" points="7153.6,5511.91 6980.78,5566.76 7161.63,5571.26 "/>
   <polygon class="fil1 str1" points="2833.27,2039.25 2844.01,2067.87 2835.96,2143.45 5859.04,2530.49 5850.05,2469.2 5863.94,2448.77 5859.04,2437.33 "/>
   <line class="fil2 str2" x1="2848.24" y1="2139.89" x2="2858.29" y2= "2408.73" />
   <line class="fil2 str2" x1="5848.69" y1="2524.64" x2="5593.31" y2= "2912.26" />
   <polygon class="fil1 str1" points="4125.94,6370.85 7264.65,6367.61 7323.4,6788.35 4123.95,6873.67 "/>
   <g>
    <path class="fil3" d="M3274.06 6364.65l-178.52 0.61 -0.09 -27.78 178.52 -0.61 13.93 14.37 -13.83 13.41zm13.83 -13.41l-0.46 13.37 -13.37 0.05 13.83 -13.41zm30.21 -877.17l-30.21 877.17 -27.76 -0.95 30.21 -877.17 14.18 -13.41 13.58 14.37zm-13.58 -14.37l14.07 0.3 -0.48 14.06 -13.58 -14.37zm-1557.1 -33.63l1557.1 33.63 -0.6 27.78 -1557.1 -33.63 -13.5 -15.45 14.1 -12.33zm-14.1 12.33l1.42 -12.61 12.68 0.28 -14.1 12.33zm-27.82 246.44l27.82 -246.44 27.61 3.12 -27.82 246.44 -0.01 0.05 -27.6 -3.17zm27.61 3.12l-0.01 0.05 0.06 -0.55 -0.06 0.5zm-108.58 690.92l80.98 -694.09 27.59 3.22 -80.98 694.09 -13.52 12.28 -14.07 -15.5zm14.07 15.5l-15.92 0.32 1.85 -15.82 14.07 15.5zm1457.17 -29.13l-1457.17 29.13 -0.56 -27.78 1457.17 -29.13 0.23 0 0.33 27.78zm-0.56 -27.78l-0.05 0 0.28 0 -0.23 0z"/>
   </g>
   <polygon class="fil1 str1" points="2359.85,5599.95 2297.3,6367.59 2348.75,6366.58 2408.39,5641.61 2684.35,5644.98 2625.2,6361.17 2681.55,6359.74 2737.54,5647.84 3000.34,5650.04 2957.34,6354.66 3018.82,6353.45 3058.44,5611.29 "/>
   <line class="fil2 str3" x1="1845.58" y1="5442" x2="1734.18" y2= "6377.63" />
   <line class="fil2 str3" x1="1944.63" y1="5444.77" x2="1833.24" y2= "6380.4" />
   <line class="fil2 str4" x1="2040.4" y1="5447.17" x2="1935.58" y2= "6383.56" />
   <line class="fil2 str5" x1="2140.74" y1="5450.09" x2="2033.35" y2= "6386.19" />
   <line class="fil2 str6" x1="2230.9" y1="5451.93" x2="2141.3" y2= "6389.9" />
   <line class="fil2 str7" x1="2327.26" y1="5454.46" x2="2243.05" y2= "6392.92" />
   <line class="fil2 str3" x1="2432.13" y1="5457.09" x2="2421.11" y2= "5616.54" />
   <line class="fil2 str3" x1="2529.85" y1="5459.81" x2="2519.88" y2= "5621.73" />
   <line class="fil2 str3" x1="2638.02" y1="5464.2" x2="2626.63" y2= "5604.28" />
   <line class="fil2 str3" x1="2735.7" y1="5460.83" x2="2724.31" y2= "5614.77" />
   <line class="fil2 str3" x1="2836.8" y1="5462.97" x2="2827.11" y2= "5607.53" />
   <line class="fil2 str3" x1="2935.76" y1="5465.07" x2="2927.47" y2= "5614.33" />
   <line class="fil2 str3" x1="3034.27" y1="5467.15" x2="3025.7" y2= "5615.26" />
   <line class="fil2 str3" x1="3110.59" y1="5480.08" x2="3062.85" y2= "6360.41" />
   <line class="fil2 str3" x1="3210.24" y1="5470.88" x2="3165.85" y2= "6359.04" />
   <line class="fil2 str3" x1="3285.38" y1="5475.87" x2="3240.04" y2= "6357.55" />
   <line class="fil2 str2" x1="3435.67" y1="3478.02" x2="3420.02" y2= "3682.6" />
   <line class="fil2 str2" x1="3412.67" y1="4263.55" x2="3383.15" y2= "4542.11" />
   <line class="fil2 str2" x1="3478.02" y1="2476.74" x2="3449.15" y2= "2905.95" />
   <polyline class="fil2 str2" points="6785.15,3189.07 6802.49,3252.18 6867.05,3671.36 6934.1,3783.06 6895.81,3819.24 7004.25,4489.1 7067.64,4598.38 7021.89,4626.53 7142.81,5376.71 7204.94,5500.38 7154.1,5524.83 7312.2,6788.65 "/>
  </g>
 </g>
</svg>
