<?xml version="1.0" encoding="iso-8859-1"?>
<!-- Uploaded to: SVG Repo, www.svgrepo.com, Generator: SVG Repo Mixer Tools -->
<svg fill="#000000" height="800px" width="800px" version="1.1" id="Layer_1" xmlns="http://www.w3.org/2000/svg" xmlns:xlink="http://www.w3.org/1999/xlink" 
	 viewBox="0 0 392.633 392.633" xml:space="preserve">
<g>
	<g>
		<path d="M373.883,244.782L147.943,18.907c-9.762-7.628-16.937,0.323-18.101,4.202L44.057,273.55L3.2,314.342
			c-4.267,4.267-4.267,11.119,0,15.451l59.798,59.798c3.685,3.685,11.766,3.685,15.45,0l40.857-40.857l6.853-2.392
			c10.99,23.402,36.137,37.43,63.935,37.43c45.834,0,63.16-24.436,72.533-40.857c8.404-14.675,10.99-30.707,7.628-45.899
			l99.426-34.133C374.594,262.043,381.059,252.281,373.883,244.782z M70.756,366.447l-44.347-44.347l27.216-27.216l44.347,44.347
			L70.756,366.447z M211.297,358.237c-26.117,9.244-53.463,0.711-64.259-19.071l102.465-35.103
			C249.438,337.614,225.455,353.323,211.297,358.237z M116.267,326.754l-50.166-50.166l34.392-100.396l11.313,11.313
			c3.62,3.62,11.636,3.814,15.451,0c4.267-4.267,4.267-11.119,0-15.451l-18.877-18.877l7.887-22.949l44.994,44.994
			c3.491,3.491,11.572,3.879,15.451,0c4.267-4.267,4.267-11.119,0-15.451l-52.493-52.493l20.816-60.638l201.244,201.244
			L116.267,326.754z"/>
	</g>
</g>
<g>
	<g>
		<path d="M252.347,0.289c-6.012-0.259-11.055,4.59-11.184,10.602l-1.487,55.402c-0.194,6.012,4.525,10.99,10.537,11.184
			c0.065,0,0.259,0,0.323,0c5.883,0,10.731-4.719,10.925-10.602l1.487-55.402C263.079,5.461,258.36,0.418,252.347,0.289z"/>
	</g>
</g>
<g>
	<g>
		<path d="M350.352,42.439c-4.267-4.267-11.119-4.267-15.451,0l-39.176,39.176c-4.267,4.267-4.267,11.119,0,15.451
			c3.943,3.879,11.895,3.556,15.451,0l39.176-39.176C354.618,53.622,354.618,46.77,350.352,42.439z"/>
	</g>
</g>
<g>
	<g>
		<path d="M381.382,129.905l-55.402,1.487c-6.012,0.129-10.731,5.172-10.602,11.184c0.129,5.948,5.042,10.602,10.925,10.602
			c0.065,0,0.259,0,0.323,0l55.402-1.487c6.012-0.129,10.731-5.172,10.602-11.184C392.436,134.495,387.459,129.776,381.382,129.905z
			"/>
	</g>
</g>
</svg>